<mxfile host="app.diagrams.net" agent="Mozilla/5.0 (Windows NT 10.0; Win64; x64) AppleWebKit/537.36 (KHTML, like Gecko) Chrome/130.0.0.0 Safari/537.36" version="24.8.4">
  <diagram name="Page-1" id="rqOcA_mUrkZVKu79BJYY">
    <mxGraphModel dx="1363" dy="797" grid="1" gridSize="10" guides="1" tooltips="1" connect="1" arrows="1" fold="1" page="1" pageScale="1" pageWidth="850" pageHeight="1100" math="0" shadow="0">
      <root>
        <mxCell id="0" />
        <mxCell id="1" parent="0" />
        <mxCell id="Divgd3U-4BxumtlS_NHO-1" value="" style="rounded=1;whiteSpace=wrap;html=1;" vertex="1" parent="1">
          <mxGeometry x="50" y="115" width="100" height="390" as="geometry" />
        </mxCell>
        <mxCell id="Divgd3U-4BxumtlS_NHO-2" value="" style="whiteSpace=wrap;html=1;aspect=fixed;" vertex="1" parent="1">
          <mxGeometry x="250" y="60" width="550" height="550" as="geometry" />
        </mxCell>
        <mxCell id="Divgd3U-4BxumtlS_NHO-4" value="3rd party integrations&lt;div&gt;or external APIs&lt;/div&gt;" style="rounded=1;whiteSpace=wrap;html=1;" vertex="1" parent="1">
          <mxGeometry x="840" y="62.5" width="100" height="390" as="geometry" />
        </mxCell>
        <mxCell id="Divgd3U-4BxumtlS_NHO-6" value="Client App" style="text;html=1;align=center;verticalAlign=middle;whiteSpace=wrap;rounded=0;" vertex="1" parent="1">
          <mxGeometry x="70" y="70" width="60" height="30" as="geometry" />
        </mxCell>
        <mxCell id="Divgd3U-4BxumtlS_NHO-9" value="Backend" style="text;html=1;align=center;verticalAlign=middle;whiteSpace=wrap;rounded=0;" vertex="1" parent="1">
          <mxGeometry x="510" y="30" width="60" height="30" as="geometry" />
        </mxCell>
        <mxCell id="Divgd3U-4BxumtlS_NHO-62" style="edgeStyle=orthogonalEdgeStyle;rounded=0;orthogonalLoop=1;jettySize=auto;html=1;entryX=0;entryY=0.5;entryDx=0;entryDy=0;" edge="1" parent="1" source="Divgd3U-4BxumtlS_NHO-11" target="Divgd3U-4BxumtlS_NHO-15">
          <mxGeometry relative="1" as="geometry" />
        </mxCell>
        <mxCell id="Divgd3U-4BxumtlS_NHO-11" value="API Gateway" style="rounded=0;whiteSpace=wrap;html=1;" vertex="1" parent="1">
          <mxGeometry x="290" y="172.5" width="80" height="340" as="geometry" />
        </mxCell>
        <mxCell id="Divgd3U-4BxumtlS_NHO-50" style="edgeStyle=orthogonalEdgeStyle;rounded=0;orthogonalLoop=1;jettySize=auto;html=1;exitX=0.5;exitY=1;exitDx=0;exitDy=0;entryX=0.5;entryY=0;entryDx=0;entryDy=0;" edge="1" parent="1" source="Divgd3U-4BxumtlS_NHO-12" target="Divgd3U-4BxumtlS_NHO-11">
          <mxGeometry relative="1" as="geometry" />
        </mxCell>
        <mxCell id="Divgd3U-4BxumtlS_NHO-12" value="IAM" style="rounded=1;whiteSpace=wrap;html=1;" vertex="1" parent="1">
          <mxGeometry x="270" y="80" width="120" height="60" as="geometry" />
        </mxCell>
        <mxCell id="Divgd3U-4BxumtlS_NHO-52" style="edgeStyle=orthogonalEdgeStyle;rounded=0;orthogonalLoop=1;jettySize=auto;html=1;" edge="1" parent="1" source="Divgd3U-4BxumtlS_NHO-15" target="Divgd3U-4BxumtlS_NHO-51">
          <mxGeometry relative="1" as="geometry" />
        </mxCell>
        <mxCell id="Divgd3U-4BxumtlS_NHO-15" value="" style="rounded=0;whiteSpace=wrap;html=1;" vertex="1" parent="1">
          <mxGeometry x="460" y="115" width="160" height="60" as="geometry" />
        </mxCell>
        <mxCell id="Divgd3U-4BxumtlS_NHO-16" value="Order services" style="rounded=1;whiteSpace=wrap;html=1;" vertex="1" parent="1">
          <mxGeometry x="480" y="130" width="60" height="35" as="geometry" />
        </mxCell>
        <mxCell id="Divgd3U-4BxumtlS_NHO-17" value="" style="shape=cylinder3;whiteSpace=wrap;html=1;boundedLbl=1;backgroundOutline=1;size=15;" vertex="1" parent="1">
          <mxGeometry x="580" y="120" width="30" height="45" as="geometry" />
        </mxCell>
        <mxCell id="Divgd3U-4BxumtlS_NHO-18" value="" style="endArrow=classic;html=1;rounded=0;exitX=1;exitY=0.5;exitDx=0;exitDy=0;entryX=0;entryY=0;entryDx=0;entryDy=26.25;entryPerimeter=0;" edge="1" parent="1" source="Divgd3U-4BxumtlS_NHO-16" target="Divgd3U-4BxumtlS_NHO-17">
          <mxGeometry width="50" height="50" relative="1" as="geometry">
            <mxPoint x="450" y="285" as="sourcePoint" />
            <mxPoint x="500" y="235" as="targetPoint" />
          </mxGeometry>
        </mxCell>
        <mxCell id="Divgd3U-4BxumtlS_NHO-53" style="edgeStyle=orthogonalEdgeStyle;rounded=0;orthogonalLoop=1;jettySize=auto;html=1;entryX=0;entryY=0.5;entryDx=0;entryDy=0;" edge="1" parent="1" source="Divgd3U-4BxumtlS_NHO-33" target="Divgd3U-4BxumtlS_NHO-51">
          <mxGeometry relative="1" as="geometry" />
        </mxCell>
        <mxCell id="Divgd3U-4BxumtlS_NHO-33" value="" style="rounded=0;whiteSpace=wrap;html=1;" vertex="1" parent="1">
          <mxGeometry x="460" y="225" width="160" height="60" as="geometry" />
        </mxCell>
        <mxCell id="Divgd3U-4BxumtlS_NHO-34" value="Product catalog serv" style="rounded=1;whiteSpace=wrap;html=1;" vertex="1" parent="1">
          <mxGeometry x="480" y="240" width="60" height="35" as="geometry" />
        </mxCell>
        <mxCell id="Divgd3U-4BxumtlS_NHO-35" value="" style="shape=cylinder3;whiteSpace=wrap;html=1;boundedLbl=1;backgroundOutline=1;size=15;" vertex="1" parent="1">
          <mxGeometry x="580" y="230" width="30" height="45" as="geometry" />
        </mxCell>
        <mxCell id="Divgd3U-4BxumtlS_NHO-54" style="edgeStyle=orthogonalEdgeStyle;rounded=0;orthogonalLoop=1;jettySize=auto;html=1;" edge="1" parent="1" source="Divgd3U-4BxumtlS_NHO-36" target="Divgd3U-4BxumtlS_NHO-51">
          <mxGeometry relative="1" as="geometry" />
        </mxCell>
        <mxCell id="Divgd3U-4BxumtlS_NHO-36" value="" style="rounded=0;whiteSpace=wrap;html=1;" vertex="1" parent="1">
          <mxGeometry x="460" y="325" width="160" height="60" as="geometry" />
        </mxCell>
        <mxCell id="Divgd3U-4BxumtlS_NHO-37" value="cart service" style="rounded=1;whiteSpace=wrap;html=1;" vertex="1" parent="1">
          <mxGeometry x="480" y="340" width="60" height="35" as="geometry" />
        </mxCell>
        <mxCell id="Divgd3U-4BxumtlS_NHO-38" value="" style="shape=cylinder3;whiteSpace=wrap;html=1;boundedLbl=1;backgroundOutline=1;size=15;" vertex="1" parent="1">
          <mxGeometry x="580" y="330" width="30" height="45" as="geometry" />
        </mxCell>
        <mxCell id="Divgd3U-4BxumtlS_NHO-55" style="edgeStyle=orthogonalEdgeStyle;rounded=0;orthogonalLoop=1;jettySize=auto;html=1;" edge="1" parent="1" source="Divgd3U-4BxumtlS_NHO-39" target="Divgd3U-4BxumtlS_NHO-51">
          <mxGeometry relative="1" as="geometry" />
        </mxCell>
        <mxCell id="Divgd3U-4BxumtlS_NHO-39" value="" style="rounded=0;whiteSpace=wrap;html=1;" vertex="1" parent="1">
          <mxGeometry x="470" y="425" width="160" height="60" as="geometry" />
        </mxCell>
        <mxCell id="Divgd3U-4BxumtlS_NHO-40" value="User Mangement" style="rounded=1;whiteSpace=wrap;html=1;" vertex="1" parent="1">
          <mxGeometry x="490" y="440" width="60" height="35" as="geometry" />
        </mxCell>
        <mxCell id="Divgd3U-4BxumtlS_NHO-41" value="" style="shape=cylinder3;whiteSpace=wrap;html=1;boundedLbl=1;backgroundOutline=1;size=15;" vertex="1" parent="1">
          <mxGeometry x="590" y="430" width="30" height="45" as="geometry" />
        </mxCell>
        <mxCell id="Divgd3U-4BxumtlS_NHO-43" value="Static Contents" style="whiteSpace=wrap;html=1;aspect=fixed;" vertex="1" parent="1">
          <mxGeometry x="100" y="710" width="80" height="80" as="geometry" />
        </mxCell>
        <mxCell id="Divgd3U-4BxumtlS_NHO-46" style="edgeStyle=orthogonalEdgeStyle;rounded=0;orthogonalLoop=1;jettySize=auto;html=1;entryX=0;entryY=0.5;entryDx=0;entryDy=0;" edge="1" parent="1" source="Divgd3U-4BxumtlS_NHO-44" target="Divgd3U-4BxumtlS_NHO-43">
          <mxGeometry relative="1" as="geometry" />
        </mxCell>
        <mxCell id="Divgd3U-4BxumtlS_NHO-44" value="CDN" style="rounded=1;whiteSpace=wrap;html=1;" vertex="1" parent="1">
          <mxGeometry x="50" y="610" width="120" height="60" as="geometry" />
        </mxCell>
        <mxCell id="Divgd3U-4BxumtlS_NHO-47" style="edgeStyle=orthogonalEdgeStyle;rounded=0;orthogonalLoop=1;jettySize=auto;html=1;entryX=0.429;entryY=0.067;entryDx=0;entryDy=0;entryPerimeter=0;" edge="1" parent="1" source="Divgd3U-4BxumtlS_NHO-1" target="Divgd3U-4BxumtlS_NHO-44">
          <mxGeometry relative="1" as="geometry" />
        </mxCell>
        <mxCell id="Divgd3U-4BxumtlS_NHO-48" value="" style="endArrow=classic;html=1;rounded=0;entryX=0;entryY=0.5;entryDx=0;entryDy=0;exitX=0.992;exitY=0.023;exitDx=0;exitDy=0;exitPerimeter=0;" edge="1" parent="1" source="Divgd3U-4BxumtlS_NHO-1" target="Divgd3U-4BxumtlS_NHO-12">
          <mxGeometry width="50" height="50" relative="1" as="geometry">
            <mxPoint x="420" y="350" as="sourcePoint" />
            <mxPoint x="470" y="300" as="targetPoint" />
          </mxGeometry>
        </mxCell>
        <mxCell id="Divgd3U-4BxumtlS_NHO-49" value="" style="endArrow=classic;html=1;rounded=0;exitX=1;exitY=0.5;exitDx=0;exitDy=0;" edge="1" parent="1" source="Divgd3U-4BxumtlS_NHO-63" target="Divgd3U-4BxumtlS_NHO-65">
          <mxGeometry width="50" height="50" relative="1" as="geometry">
            <mxPoint x="160" y="320" as="sourcePoint" />
            <mxPoint x="210" y="270" as="targetPoint" />
          </mxGeometry>
        </mxCell>
        <mxCell id="Divgd3U-4BxumtlS_NHO-51" value="Message/Event bus&lt;div&gt;&lt;br&gt;&lt;/div&gt;" style="rounded=1;whiteSpace=wrap;html=1;" vertex="1" parent="1">
          <mxGeometry x="670" y="115" width="80" height="375" as="geometry" />
        </mxCell>
        <mxCell id="Divgd3U-4BxumtlS_NHO-56" style="edgeStyle=orthogonalEdgeStyle;rounded=0;orthogonalLoop=1;jettySize=auto;html=1;entryX=0.004;entryY=0.609;entryDx=0;entryDy=0;entryPerimeter=0;" edge="1" parent="1" source="Divgd3U-4BxumtlS_NHO-2" target="Divgd3U-4BxumtlS_NHO-4">
          <mxGeometry relative="1" as="geometry" />
        </mxCell>
        <mxCell id="Divgd3U-4BxumtlS_NHO-58" value="" style="rounded=1;whiteSpace=wrap;html=1;" vertex="1" parent="1">
          <mxGeometry x="400" y="530" width="360" height="60" as="geometry" />
        </mxCell>
        <mxCell id="Divgd3U-4BxumtlS_NHO-59" value="Observabilty" style="rounded=0;whiteSpace=wrap;html=1;" vertex="1" parent="1">
          <mxGeometry x="650" y="540" width="90" height="40" as="geometry" />
        </mxCell>
        <mxCell id="Divgd3U-4BxumtlS_NHO-60" value="Cache" style="rounded=0;whiteSpace=wrap;html=1;" vertex="1" parent="1">
          <mxGeometry x="510" y="540" width="90" height="40" as="geometry" />
        </mxCell>
        <mxCell id="Divgd3U-4BxumtlS_NHO-63" value="Web" style="rounded=0;whiteSpace=wrap;html=1;" vertex="1" parent="1">
          <mxGeometry x="70" y="180" width="60" height="60" as="geometry" />
        </mxCell>
        <mxCell id="Divgd3U-4BxumtlS_NHO-66" style="edgeStyle=orthogonalEdgeStyle;rounded=0;orthogonalLoop=1;jettySize=auto;html=1;" edge="1" parent="1" source="Divgd3U-4BxumtlS_NHO-64" target="Divgd3U-4BxumtlS_NHO-69">
          <mxGeometry relative="1" as="geometry" />
        </mxCell>
        <mxCell id="Divgd3U-4BxumtlS_NHO-64" value="Mobile app" style="rounded=0;whiteSpace=wrap;html=1;" vertex="1" parent="1">
          <mxGeometry x="60" y="330" width="70" height="60" as="geometry" />
        </mxCell>
        <mxCell id="Divgd3U-4BxumtlS_NHO-65" value="Web BFF" style="rounded=0;whiteSpace=wrap;html=1;" vertex="1" parent="1">
          <mxGeometry x="300" y="210" width="60" height="40" as="geometry" />
        </mxCell>
        <mxCell id="Divgd3U-4BxumtlS_NHO-69" value="Mobile BFF" style="rounded=0;whiteSpace=wrap;html=1;" vertex="1" parent="1">
          <mxGeometry x="300" y="380" width="60" height="40" as="geometry" />
        </mxCell>
        <mxCell id="Divgd3U-4BxumtlS_NHO-70" value="" style="endArrow=classic;html=1;rounded=0;exitX=1;exitY=0.5;exitDx=0;exitDy=0;entryX=0;entryY=0.5;entryDx=0;entryDy=0;" edge="1" parent="1" source="Divgd3U-4BxumtlS_NHO-11" target="Divgd3U-4BxumtlS_NHO-33">
          <mxGeometry width="50" height="50" relative="1" as="geometry">
            <mxPoint x="330" y="310" as="sourcePoint" />
            <mxPoint x="380" y="260" as="targetPoint" />
            <Array as="points">
              <mxPoint x="440" y="343" />
              <mxPoint x="440" y="290" />
            </Array>
          </mxGeometry>
        </mxCell>
      </root>
    </mxGraphModel>
  </diagram>
</mxfile>
